# xmcd
#
# Track frame offsets: 
#        150
#        14446
#        29126
#        50843
#        60682
#        75794
#        98507
#        113043
#        127493
#        144682
#        163135
#
# Disc length: 2549 seconds
#
# Revision: 0
# Processed by: cddbd v1.5.1PL2 Copyright (c) Steve Scherf et al.
# Submitted via: ExactAudioCopy v0.95b4
#
DISCID=9a09f30b
DTITLE=The Suwannee River Boys - Roots
DYEAR=2003
DGENRE=Bluegrass
TTITLE0=In Gloryland
TTITLE1=Tramp On The Street
TTITLE2=Beautiful Star Of Bethlehem
TTITLE3=Who Will Sing One Song For Me
TTITLE4=A'int No Grave ( Gonna Hold My Body Down )
TTITLE5=Sweet Beulah Land
TTITLE6=Lay Your Burdens At His Feet
TTITLE7=How About You
TTITLE8=Purple Robe
TTITLE9=I Just Steal Away And Pray
TTITLE10=If I Could Hear My Mother Pray Again
EXTD=
EXTT0=
EXTT1=
EXTT2=
EXTT3=
EXTT4=
EXTT5=
EXTT6=
EXTT7=
EXTT8=
EXTT9=
EXTT10=
PLAYORDER=
